<svg xmlns="http://www.w3.org/2000/svg" width="22.969" height="28" viewBox="0 0 22.969 28"><defs><style>.a{fill:#6d2ab7;}</style></defs><g transform="translate(-46)"><path class="a" d="M261.742,302a5.742,5.742,0,1,0,5.742,5.742A5.749,5.749,0,0,0,261.742,302Zm2.221,5.092-2.461,2.461a.82.82,0,0,1-1.16,0l-1.23-1.23a.82.82,0,1,1,1.16-1.16l.651.651,1.881-1.881a.82.82,0,1,1,1.16,1.16Z" transform="translate(-198.516 -285.484)"/><path class="a" d="M63.227,0H46.82A.82.82,0,0,0,46,.82V23.9a.82.82,0,0,0,.82.82h9.462c0-.009-.008-.016-.011-.025a6.77,6.77,0,0,1-.428-2.436,7.391,7.391,0,0,1,7.383-7.383,7.227,7.227,0,0,1,.82.083V.82A.82.82,0,0,0,63.227,0ZM50.1,16.516a.82.82,0,1,1,.82-.82A.82.82,0,0,1,50.1,16.516Zm0-3.281a.82.82,0,1,1,.82-.82A.82.82,0,0,1,50.1,13.234Zm0-3.281a.82.82,0,1,1,.82-.82A.82.82,0,0,1,50.1,9.953Zm0-3.281a.82.82,0,1,1,.82-.82A.82.82,0,0,1,50.1,6.672Zm6.563,9.844H53.383a.82.82,0,0,1,0-1.641h3.281a.82.82,0,0,1,0,1.641Zm3.281-3.281H53.383a.82.82,0,0,1,0-1.641h6.563a.82.82,0,0,1,0,1.641Zm0-3.281H53.383a.82.82,0,0,1,0-1.641h6.563a.82.82,0,0,1,0,1.641Zm0-3.281H53.383a.82.82,0,0,1,0-1.641h6.563a.82.82,0,0,1,0,1.641Z"/></g></svg>