<svg xmlns="http://www.w3.org/2000/svg" width="21.39" height="28.52" viewBox="0 0 21.39 28.52"><defs><style>.a{fill:#fff;opacity:0.29;}</style></defs><path class="a" d="M18.716,3.565H14.26a3.565,3.565,0,0,0-7.13,0H2.674A2.674,2.674,0,0,0,0,6.239V25.846A2.674,2.674,0,0,0,2.674,28.52H18.716a2.674,2.674,0,0,0,2.674-2.674V6.239A2.674,2.674,0,0,0,18.716,3.565ZM5.347,23.618a1.337,1.337,0,1,1,1.337-1.337A1.334,1.334,0,0,1,5.347,23.618Zm0-5.347a1.337,1.337,0,1,1,1.337-1.337A1.334,1.334,0,0,1,5.347,18.27Zm0-5.347a1.337,1.337,0,1,1,1.337-1.337A1.334,1.334,0,0,1,5.347,12.923ZM10.695,2.228A1.337,1.337,0,1,1,9.358,3.565,1.334,1.334,0,0,1,10.695,2.228Zm7.13,20.5a.447.447,0,0,1-.446.446H9.358a.447.447,0,0,1-.446-.446v-.891a.447.447,0,0,1,.446-.446h8.021a.447.447,0,0,1,.446.446Zm0-5.347a.447.447,0,0,1-.446.446H9.358a.447.447,0,0,1-.446-.446v-.891a.447.447,0,0,1,.446-.446h8.021a.447.447,0,0,1,.446.446Zm0-5.347a.447.447,0,0,1-.446.446H9.358a.447.447,0,0,1-.446-.446V11.14a.447.447,0,0,1,.446-.446h8.021a.447.447,0,0,1,.446.446Z"/></svg>